{
  "accessors": [
    {
      "bufferView": 2,
      "componentType": 5126,
      "count": 4,
      "max": [
        -67.990798950195312,
        20.966299057006836,
        49.403999328613281
      ],
      "min": [
        -69.359596252441406,
        20.966299057006836,
        40.951400756835938
      ],
      "type": "VEC3"
    },
    {
      "bufferView": 2,
      "byteOffset": 48,
      "componentType": 5126,
      "count": 4,
      "max": [
        0,
        -1,
        0
      ],
      "min": [
        0,
        -1,
        0
      ],
      "type": "VEC3"
    },
    {
      "bufferView": 3,
      "componentType": 5126,
      "count": 4,
      "max": [
        -1,
        0,
        0,
        -1
      ],
      "min": [
        -1,
        0,
        0,
        -1
      ],
      "type": "VEC4"
    },
    {
      "bufferView": 1,
      "componentType": 5126,
      "count": 4,
      "max": [
        0.083999998867511749,
        1
      ],
      "min": [
        0,
        0
      ],
      "type": "VEC2"
    },
    {
      "bufferView": 0,
      "componentType": 5125,
      "count": 6,
      "max": [
        3
      ],
      "min": [
        0
      ],
      "type": "SCALAR"
    },
    {
      "bufferView": 2,
      "byteOffset": 96,
      "componentType": 5126,
      "count": 18,
      "max": [
        -67.990798950195312,
        21.393600463867188,
        49.403999328613281
      ],
      "min": [
        -69.556999206542969,
        12.41450023651123,
        39.317901611328125
      ],
      "type": "VEC3"
    },
    {
      "bufferView": 2,
      "byteOffset": 312,
      "componentType": 5126,
      "count": 18,
      "max": [
        -1,
        0,
        0
      ],
      "min": [
        -1,
        0,
        0
      ],
      "type": "VEC3"
    },
    {
      "bufferView": 3,
      "byteOffset": 64,
      "componentType": 5126,
      "count": 18,
      "max": [
        0,
        1,
        0,
        1
      ],
      "min": [
        0,
        0,
        -0.9694666862487793,
        -1
      ],
      "type": "VEC4"
    },
    {
      "bufferView": 1,
      "byteOffset": 32,
      "componentType": 5126,
      "count": 18,
      "max": [
        1,
        1
      ],
      "min": [
        0,
        -0.1932000070810318
      ],
      "type": "VEC2"
    },
    {
      "bufferView": 0,
      "byteOffset": 24,
      "componentType": 5125,
      "count": 42,
      "max": [
        17
      ],
      "min": [
        0
      ],
      "type": "SCALAR"
    },
    {
      "bufferView": 2,
      "byteOffset": 528,
      "componentType": 5126,
      "count": 9823,
      "max": [
        76.661697387695312,
        83.118301391601562,
        166.98649597167969
      ],
      "min": [
        -73.775001525878906,
        -101.22270202636719,
        -67.998298645019531
      ],
      "type": "VEC3"
    },
    {
      "bufferView": 2,
      "byteOffset": 118404,
      "componentType": 5126,
      "count": 9823,
      "max": [
        1,
        1,
        1
      ],
      "min": [
        -1,
        -1,
        -1
      ],
      "type": "VEC3"
    },
    {
      "bufferView": 3,
      "byteOffset": 352,
      "componentType": 5126,
      "count": 9823,
      "max": [
        1,
        1,
        1,
        1
      ],
      "min": [
        -1,
        -1,
        -1,
        -1
      ],
      "type": "VEC4"
    },
    {
      "bufferView": 1,
      "byteOffset": 176,
      "componentType": 5126,
      "count": 9823,
      "max": [
        1.0277999639511108,
        1
      ],
      "min": [
        -0.027799999341368675,
        0
      ],
      "type": "VEC2"
    },
    {
      "bufferView": 0,
      "byteOffset": 192,
      "componentType": 5125,
      "count": 20892,
      "max": [
        9822
      ],
      "min": [
        0
      ],
      "type": "SCALAR"
    },
    {
      "bufferView": 2,
      "byteOffset": 236280,
      "componentType": 5126,
      "count": 262,
      "max": [
        59.572601318359375,
        21.894599914550781,
        163.66090393066406
      ],
      "min": [
        -71.313499450683594,
        -73.614303588867188,
        -32.126598358154297
      ],
      "type": "VEC3"
    },
    {
      "bufferView": 2,
      "byteOffset": 239424,
      "componentType": 5126,
      "count": 262,
      "max": [
        1,
        1,
        1
      ],
      "min": [
        -1,
        -1,
        -1
      ],
      "type": "VEC3"
    },
    {
      "bufferView": 3,
      "byteOffset": 157520,
      "componentType": 5126,
      "count": 262,
      "max": [
        1,
        1,
        0,
        1
      ],
      "min": [
        -1,
        -1,
        0,
        -1
      ],
      "type": "VEC4"
    },
    {
      "bufferView": 1,
      "byteOffset": 78760,
      "componentType": 5126,
      "count": 262,
      "max": [
        0.99239999055862427,
        1
      ],
      "min": [
        -0.027799999341368675,
        0
      ],
      "type": "VEC2"
    },
    {
      "bufferView": 0,
      "byteOffset": 83760,
      "componentType": 5125,
      "count": 546,
      "max": [
        261
      ],
      "min": [
        0
      ],
      "type": "SCALAR"
    },
    {
      "bufferView": 2,
      "byteOffset": 242568,
      "componentType": 5126,
      "count": 45,
      "max": [
        85.038497924804688,
        68.316497802734375,
        75.192703247070312
      ],
      "min": [
        -69.359596252441406,
        -86.162002563476562,
        -10.47189998626709
      ],
      "type": "VEC3"
    },
    {
      "bufferView": 2,
      "byteOffset": 243108,
      "componentType": 5126,
      "count": 45,
      "max": [
        1,
        0.9740327000617981,
        0.22640761733055115
      ],
      "min": [
        -1,
        -0.9740327000617981,
        -1
      ],
      "type": "VEC3"
    },
    {
      "bufferView": 3,
      "byteOffset": 161712,
      "componentType": 5126,
      "count": 45,
      "max": [
        0,
        0,
        0.00031965569360181689,
        1
      ],
      "min": [
        -1,
        -1,
        -0.00041969347512349486,
        -1
      ],
      "type": "VEC4"
    },
    {
      "bufferView": 1,
      "byteOffset": 80856,
      "componentType": 5126,
      "count": 45,
      "max": [
        1.3587000370025635,
        0.92930001020431519
      ],
      "min": [
        -0.35870000720024109,
        0.070699997246265411
      ],
      "type": "VEC2"
    },
    {
      "bufferView": 0,
      "byteOffset": 85944,
      "componentType": 5125,
      "count": 111,
      "max": [
        44
      ],
      "min": [
        0
      ],
      "type": "SCALAR"
    },
    {
      "bufferView": 2,
      "byteOffset": 243648,
      "componentType": 5126,
      "count": 440,
      "max": [
        72.394096374511719,
        87.926101684570312,
        0.38850000500679016
      ],
      "min": [
        -67.177803039550781,
        -106.03050231933594,
        -68.891403198242188
      ],
      "type": "VEC3"
    },
    {
      "bufferView": 2,
      "byteOffset": 248928,
      "componentType": 5126,
      "count": 440,
      "max": [
        1,
        0.98481583595275879,
        1
      ],
      "min": [
        -1,
        -0.98481583595275879,
        -1
      ],
      "type": "VEC3"
    },
    {
      "bufferView": 3,
      "byteOffset": 162432,
      "componentType": 5126,
      "count": 440,
      "max": [
        0.98481583595275879,
        1,
        0,
        1
      ],
      "min": [
        -0.98481583595275879,
        -1,
        0,
        -1
      ],
      "type": "VEC4"
    },
    {
      "bufferView": 1,
      "byteOffset": 81216,
      "componentType": 5126,
      "count": 440,
      "max": [
        1.0277999639511108,
        1
      ],
      "min": [
        0.0076000001281499863,
        0
      ],
      "type": "VEC2"
    },
    {
      "bufferView": 0,
      "byteOffset": 86388,
      "componentType": 5125,
      "count": 1440,
      "max": [
        439
      ],
      "min": [
        0
      ],
      "type": "SCALAR"
    },
    {
      "bufferView": 2,
      "byteOffset": 254208,
      "componentType": 5126,
      "count": 24,
      "max": [
        -67.990798950195312,
        20.966299057006836,
        49.403999328613281
      ],
      "min": [
        -69.359596252441406,
        12.41450023651123,
        39.317901611328125
      ],
      "type": "VEC3"
    },
    {
      "bufferView": 2,
      "byteOffset": 254496,
      "componentType": 5126,
      "count": 24,
      "max": [
        0,
        1,
        1
      ],
      "min": [
        0,
        -1,
        0
      ],
      "type": "VEC3"
    },
    {
      "bufferView": 3,
      "byteOffset": 169472,
      "componentType": 5126,
      "count": 24,
      "max": [
        1,
        0,
        0,
        1
      ],
      "min": [
        -1,
        0,
        0,
        -1
      ],
      "type": "VEC4"
    },
    {
      "bufferView": 1,
      "byteOffset": 84736,
      "componentType": 5126,
      "count": 24,
      "max": [
        1,
        1
      ],
      "min": [
        0,
        0
      ],
      "type": "VEC2"
    },
    {
      "bufferView": 0,
      "byteOffset": 92148,
      "componentType": 5125,
      "count": 36,
      "max": [
        23
      ],
      "min": [
        0
      ],
      "type": "SCALAR"
    },
    {
      "bufferView": 2,
      "byteOffset": 254784,
      "componentType": 5126,
      "count": 1990,
      "max": [
        48.965301513671875,
        46.388801574707031,
        -0.48159998655319214
      ],
      "min": [
        -66.327003479003906,
        -63.724998474121094,
        -43.593799591064453
      ],
      "type": "VEC3"
    },
    {
      "bufferView": 2,
      "byteOffset": 278664,
      "componentType": 5126,
      "count": 1990,
      "max": [
        0.98481583595275879,
        1,
        1
      ],
      "min": [
        -0.98481583595275879,
        -1,
        -1
      ],
      "type": "VEC3"
    },
    {
      "bufferView": 3,
      "byteOffset": 169856,
      "componentType": 5126,
      "count": 1990,
      "max": [
        0.98625534772872925,
        1,
        0.054579179733991623,
        1
      ],
      "min": [
        -0.98646044731140137,
        -1,
        -0.054546747356653214,
        -1
      ],
      "type": "VEC4"
    },
    {
      "bufferView": 1,
      "byteOffset": 84928,
      "componentType": 5126,
      "count": 1990,
      "max": [
        1.0277999639511108,
        1
      ],
      "min": [
        0.0076000001281499863,
        0
      ],
      "type": "VEC2"
    },
    {
      "bufferView": 0,
      "byteOffset": 92292,
      "componentType": 5125,
      "count": 4020,
      "max": [
        1989
      ],
      "min": [
        0
      ],
      "type": "SCALAR"
    }
  ],
  "asset": {
    "extras": {
      "author": "sohamr.sr (https://sketchfab.com/sohamr.sr)",
      "license": "CC-BY-4.0 (http://creativecommons.org/licenses/by/4.0/)",
      "source": "https://sketchfab.com/3d-models/vikram-lander-a841f322833d4db29e5ab74cdb1c0d24",
      "title": "Vikram Lander"
    },
    "generator": "Sketchfab-5.95.0",
    "version": "2.0"
  },
  "bufferViews": [
    {
      "buffer": 0,
      "byteLength": 108372,
      "byteOffset": 0,
      "name": "floatBufferViews",
      "target": 34963
    },
    {
      "buffer": 0,
      "byteLength": 100848,
      "byteOffset": 108372,
      "byteStride": 8,
      "name": "floatBufferViews",
      "target": 34962
    },
    {
      "buffer": 0,
      "byteLength": 302544,
      "byteOffset": 209220,
      "byteStride": 12,
      "name": "floatBufferViews",
      "target": 34962
    },
    {
      "buffer": 0,
      "byteLength": 201696,
      "byteOffset": 511764,
      "byteStride": 16,
      "name": "floatBufferViews",
      "target": 34962
    }
  ],
  "buffers": [
    {
      "byteLength": 713460,
      "uri": "scene.bin"
    }
  ],
  "images": [
    {
      "uri": "textures/Material__27_baseColor.jpeg"
    },
    {
      "uri": "textures/Material__97_baseColor.jpeg"
    }
  ],
  "materials": [
    {
      "doubleSided": true,
      "name": "03___Default",
      "pbrMetallicRoughness": {
        "baseColorFactor": [
          0.97006797907052666,
          0.96033887756300751,
          0.96033887756300751,
          1
        ],
        "metallicFactor": 0,
        "roughnessFactor": 0.59999999999999998
      }
    },
    {
      "doubleSided": true,
      "name": "Material__27",
      "pbrMetallicRoughness": {
        "baseColorFactor": [
          1,
          1,
          1,
          1
        ],
        "baseColorTexture": {
          "index": 0,
          "texCoord": 0
        },
        "metallicFactor": 0,
        "roughnessFactor": 0.59999999999999998
      }
    },
    {
      "doubleSided": true,
      "name": "Material__28",
      "pbrMetallicRoughness": {
        "baseColorFactor": [
          1,
          1,
          1,
          1
        ],
        "metallicFactor": 0,
        "roughnessFactor": 0.59999999999999998
      }
    },
    {
      "doubleSided": true,
      "name": "Material__72",
      "pbrMetallicRoughness": {
        "baseColorFactor": [
          1,
          1,
          1,
          1
        ],
        "metallicFactor": 0,
        "roughnessFactor": 0.59999999999999998
      }
    },
    {
      "doubleSided": true,
      "name": "Material__97",
      "pbrMetallicRoughness": {
        "baseColorFactor": [
          1,
          1,
          1,
          1
        ],
        "baseColorTexture": {
          "index": 1,
          "texCoord": 0
        },
        "metallicFactor": 0,
        "roughnessFactor": 0.59999999999999998
      }
    },
    {
      "doubleSided": true,
      "name": "wire_015015015",
      "pbrMetallicRoughness": {
        "baseColorFactor": [
          0.069357137222866599,
          0.058158460354972547,
          0.058158460354972547,
          1
        ],
        "metallicFactor": 0,
        "roughnessFactor": 0.59999999999999998
      }
    },
    {
      "doubleSided": true,
      "name": "wire_043043043",
      "pbrMetallicRoughness": {
        "baseColorFactor": [
          0.090015850884717488,
          0.073746008827121179,
          0.073746008827121179,
          1
        ],
        "metallicFactor": 0,
        "roughnessFactor": 0.59999999999999998
      }
    }
  ],
  "meshes": [
    {
      "primitives": [
        {
          "attributes": {
            "NORMAL": 1,
            "POSITION": 0,
            "TANGENT": 2,
            "TEXCOORD_0": 3
          },
          "indices": 4,
          "material": 3,
          "mode": 4
        }
      ]
    },
    {
      "primitives": [
        {
          "attributes": {
            "NORMAL": 6,
            "POSITION": 5,
            "TANGENT": 7,
            "TEXCOORD_0": 8
          },
          "indices": 9,
          "material": 0,
          "mode": 4
        }
      ]
    },
    {
      "primitives": [
        {
          "attributes": {
            "NORMAL": 11,
            "POSITION": 10,
            "TANGENT": 12,
            "TEXCOORD_0": 13
          },
          "indices": 14,
          "material": 1,
          "mode": 4
        }
      ]
    },
    {
      "primitives": [
        {
          "attributes": {
            "NORMAL": 16,
            "POSITION": 15,
            "TANGENT": 17,
            "TEXCOORD_0": 18
          },
          "indices": 19,
          "material": 1,
          "mode": 4
        }
      ]
    },
    {
      "primitives": [
        {
          "attributes": {
            "NORMAL": 21,
            "POSITION": 20,
            "TANGENT": 22,
            "TEXCOORD_0": 23
          },
          "indices": 24,
          "material": 4,
          "mode": 4
        }
      ]
    },
    {
      "primitives": [
        {
          "attributes": {
            "NORMAL": 26,
            "POSITION": 25,
            "TANGENT": 27,
            "TEXCOORD_0": 28
          },
          "indices": 29,
          "material": 5,
          "mode": 4
        }
      ]
    },
    {
      "primitives": [
        {
          "attributes": {
            "NORMAL": 31,
            "POSITION": 30,
            "TANGENT": 32,
            "TEXCOORD_0": 33
          },
          "indices": 34,
          "material": 2,
          "mode": 4
        }
      ]
    },
    {
      "primitives": [
        {
          "attributes": {
            "NORMAL": 36,
            "POSITION": 35,
            "TANGENT": 37,
            "TEXCOORD_0": 38
          },
          "indices": 39,
          "material": 6,
          "mode": 4
        }
      ]
    }
  ],
  "nodes": [
    {
      "children": [
        1
      ],
      "name": "RootNode (gltf orientation matrix)",
      "rotation": [
        -0.70710678118654746,
        -0,
        -0,
        0.70710678118654757
      ]
    },
    {
      "children": [
        2
      ],
      "name": "RootNode (model correction matrix)"
    },
    {
      "children": [
        3,
        4,
        5,
        6,
        7,
        8,
        9,
        10
      ],
      "name": "Vikram lander.obj.cleaner.materialmerger.gles"
    },
    {
      "mesh": 0,
      "name": ""
    },
    {
      "mesh": 1,
      "name": ""
    },
    {
      "mesh": 2,
      "name": ""
    },
    {
      "mesh": 3,
      "name": ""
    },
    {
      "mesh": 4,
      "name": ""
    },
    {
      "mesh": 5,
      "name": ""
    },
    {
      "mesh": 6,
      "name": ""
    },
    {
      "mesh": 7,
      "name": ""
    }
  ],
  "samplers": [
    {
      "magFilter": 9729,
      "minFilter": 9987,
      "wrapS": 10497,
      "wrapT": 10497
    }
  ],
  "scene": 0,
  "scenes": [
    {
      "name": "OSG_Scene",
      "nodes": [
        0
      ]
    }
  ],
  "textures": [
    {
      "sampler": 0,
      "source": 0
    },
    {
      "sampler": 0,
      "source": 1
    }
  ]
}

